<?xml version="1.0" standalone="no"?>
<!DOCTYPE svg PUBLIC "-//W3C//DTD SVG 20010904//EN"
 "http://www.w3.org/TR/2001/REC-SVG-20010904/DTD/svg10.dtd">
<svg version="1.0" xmlns="http://www.w3.org/2000/svg"
 width="4784.000000pt" height="2064.000000pt" viewBox="0 0 4784.000000 2064.000000"
 preserveAspectRatio="xMidYMid meet">

<g transform="translate(0.000000,2064.000000) scale(0.100000,-0.100000)"
fill="#000000" stroke="none">
<path d="M10267 19515 c-39 -13 -61 -35 -73 -70 -4 -11 -25 -38 -48 -61 -23
-23 -61 -67 -86 -99 -25 -32 -66 -81 -91 -109 -26 -28 -48 -60 -50 -70 -2 -11
-17 -27 -34 -36 -16 -9 -34 -25 -40 -36 -5 -11 -31 -39 -57 -63 -27 -24 -48
-50 -48 -57 0 -7 -10 -19 -22 -25 -13 -7 -44 -33 -69 -58 -74 -75 -347 -314
-439 -385 -167 -129 -416 -297 -520 -352 -36 -19 -94 -52 -130 -74 -36 -22
-76 -44 -90 -50 -14 -6 -44 -20 -67 -31 -49 -22 -128 -57 -158 -69 -11 -5 -46
-20 -79 -34 -32 -14 -63 -26 -68 -26 -6 0 -24 -7 -41 -15 -79 -36 -382 -120
-602 -167 -289 -61 -431 -73 -840 -73 -427 0 -546 11 -935 86 -203 40 -580
139 -715 189 -318 117 -485 187 -720 300 -82 40 -174 84 -203 98 -28 13 -52
28 -52 32 0 14 -116 80 -138 80 -24 0 -42 -27 -42 -62 0 -13 -13 -35 -29 -49
-28 -24 -61 -107 -61 -150 0 -10 -9 -24 -20 -32 -25 -17 -70 -118 -70 -156 0
-16 -11 -40 -25 -55 -32 -34 -50 -77 -59 -139 -5 -32 -15 -55 -31 -69 -29 -25
-50 -75 -59 -142 -5 -34 -13 -50 -25 -53 -23 -6 -49 -61 -62 -127 -5 -30 -17
-57 -29 -66 -24 -19 -60 -103 -60 -141 0 -35 -16 -70 -37 -83 -21 -12 -53 -85
-53 -122 0 -19 -8 -38 -21 -50 -33 -29 -69 -114 -69 -162 0 -35 -4 -44 -24
-53 -29 -13 -66 -95 -66 -145 0 -23 -5 -34 -19 -39 -22 -7 -58 -84 -70 -151
-5 -25 -18 -55 -29 -67 -30 -33 -52 -82 -52 -117 0 -37 -14 -67 -46 -96 -12
-12 -28 -40 -35 -63 -21 -72 -10 -87 126 -158 66 -34 140 -70 165 -79 25 -10
50 -24 57 -32 6 -8 105 -61 218 -118 114 -57 219 -112 233 -123 33 -22 239
-126 340 -170 40 -18 82 -41 94 -53 11 -11 93 -56 182 -100 88 -44 213 -110
276 -146 178 -101 213 -119 1412 -747 621 -325 1128 -595 1128 -601 0 -5 -106
-255 -235 -554 -129 -298 -234 -544 -233 -546 5 -4 287 21 292 26 7 8 516
1187 516 1196 0 15 -2090 1106 -2948 1540 -112 56 -209 107 -215 112 -20 17
-307 162 -319 162 -7 0 -21 9 -32 19 -12 10 -113 65 -226 122 -113 56 -212
108 -220 114 -8 7 -78 45 -155 84 -77 40 -145 77 -152 83 -9 7 -7 22 9 61 11
29 26 72 32 97 6 25 20 54 31 65 11 11 28 47 39 80 10 33 24 71 32 85 46 85
74 148 74 172 0 14 11 40 25 56 27 32 65 114 65 140 0 9 13 36 28 58 16 23 36
68 46 100 9 33 21 66 26 74 29 46 59 111 71 150 7 25 18 52 25 60 23 27 64
124 64 151 0 14 13 42 29 62 15 20 38 65 50 99 13 35 29 74 37 88 29 49 56
116 64 158 4 24 17 53 28 65 25 26 61 104 62 132 0 11 11 32 23 46 l22 27 106
-52 c59 -28 113 -57 120 -63 20 -16 288 -134 394 -173 50 -18 140 -52 200 -76
135 -52 291 -102 450 -144 66 -17 152 -40 190 -51 39 -10 82 -19 97 -19 15 0
39 -5 55 -11 31 -12 139 -32 308 -55 61 -8 135 -19 165 -24 143 -25 339 -32
685 -27 198 4 385 11 415 17 30 5 96 15 146 20 49 5 155 24 235 41 79 17 164
35 189 40 61 13 297 84 400 121 218 79 555 231 643 292 22 15 66 41 100 58 66
33 318 198 412 269 32 24 73 54 91 67 19 12 40 31 46 42 7 11 18 20 24 20 7 0
31 17 55 39 24 21 87 76 139 122 129 113 309 290 316 311 3 9 13 19 23 23 9 3
46 39 82 81 35 42 84 97 108 123 24 25 48 58 53 73 5 15 18 30 29 33 10 4 32
25 48 48 48 69 76 91 108 82 37 -9 732 -295 1053 -433 411 -177 770 -338 1051
-471 36 -17 69 -31 73 -31 3 0 39 -19 79 -43 139 -83 167 -98 178 -91 6 4 20
26 31 50 10 24 23 44 28 44 5 0 20 19 34 42 26 43 22 78 -9 78 -8 0 -30 14
-49 30 -30 27 -110 67 -486 247 -342 164 -924 418 -1230 538 -52 21 -108 43
-125 51 -45 20 -91 38 -320 130 -115 47 -223 91 -240 99 -33 15 -134 55 -138
55 -1 -1 -19 -7 -40 -15z"/>
<path d="M18165 15054 c-320 -47 -547 -165 -742 -386 -35 -39 -63 -80 -63 -90
0 -11 -13 -31 -29 -46 -36 -34 -51 -63 -51 -100 0 -17 -12 -44 -29 -66 -48
-60 -61 -142 -61 -386 0 -239 15 -337 56 -375 14 -13 26 -39 30 -64 4 -23 20
-58 35 -79 16 -20 40 -53 53 -72 23 -35 104 -111 167 -160 98 -75 384 -198
544 -235 33 -8 85 -20 115 -28 30 -8 116 -29 190 -47 243 -58 412 -126 502
-201 26 -21 50 -39 55 -39 4 0 19 -20 32 -45 13 -26 37 -55 53 -66 15 -11 28
-29 28 -41 0 -31 41 -159 63 -196 17 -29 20 -51 19 -160 -1 -111 -3 -129 -22
-154 -19 -25 -47 -105 -64 -180 -4 -16 -10 -28 -15 -28 -13 0 -67 -81 -74
-112 -4 -16 -18 -30 -37 -38 -17 -7 -41 -25 -53 -40 -12 -15 -62 -51 -111 -81
-153 -91 -264 -119 -476 -119 -189 0 -305 25 -467 101 -34 16 -66 29 -71 29
-5 0 -17 10 -28 21 -23 25 -112 84 -142 93 -12 4 -22 13 -22 21 0 7 -15 25
-32 39 -18 14 -36 30 -40 34 -4 4 -37 41 -75 82 -50 55 -75 75 -93 75 l-25 0
-3 -196 -2 -196 62 -54 c88 -77 144 -119 156 -119 6 0 24 -13 39 -29 15 -16
57 -45 93 -64 36 -18 81 -44 100 -56 51 -31 200 -77 318 -96 79 -13 140 -16
260 -12 277 8 457 63 662 202 77 52 221 192 247 240 9 17 28 44 43 62 16 17
38 58 50 90 12 32 27 65 35 73 7 8 21 38 31 65 17 44 19 89 22 381 3 316 2
335 -18 395 -12 35 -30 73 -39 84 -10 11 -25 41 -35 66 -25 69 -172 230 -228
251 -16 5 -28 14 -28 19 0 25 -222 132 -389 188 -52 17 -157 47 -235 67 -240
60 -407 111 -546 167 -76 30 -227 138 -258 184 -14 21 -35 50 -47 65 -37 44
-59 185 -51 325 10 187 15 214 45 253 16 20 37 53 49 75 40 78 210 232 318
288 59 30 180 67 261 78 155 22 385 -9 538 -73 39 -16 83 -34 99 -40 63 -24
252 -157 314 -222 15 -15 39 -34 54 -42 15 -8 33 -26 40 -41 15 -31 27 -36 48
-23 12 7 15 44 18 189 3 100 1 192 -2 206 -4 14 -20 32 -37 41 -17 9 -46 30
-63 48 -18 17 -61 46 -96 64 -36 18 -83 44 -105 57 -115 69 -245 120 -405 156
-83 20 -361 34 -435 23z"/>
<path d="M29310 15054 c-14 -2 -59 -9 -100 -15 -159 -24 -410 -111 -410 -143
0 -9 -13 -18 -34 -22 -34 -6 -122 -58 -161 -95 -11 -11 -53 -50 -92 -88 -46
-43 -73 -76 -73 -89 0 -12 -10 -26 -22 -33 -43 -22 -68 -52 -68 -80 0 -22 -8
-32 -31 -44 -32 -17 -59 -67 -59 -110 0 -17 -8 -29 -24 -36 -29 -14 -53 -63
-62 -129 -4 -31 -13 -55 -24 -63 -27 -19 -50 -83 -62 -172 -5 -44 -17 -87 -25
-96 -8 -9 -24 -61 -36 -115 -21 -95 -22 -121 -22 -614 0 -461 2 -524 18 -605
11 -49 27 -102 38 -117 11 -15 19 -44 19 -66 0 -63 37 -191 65 -224 15 -18 25
-42 25 -61 0 -39 52 -152 74 -160 9 -4 16 -17 16 -29 0 -29 44 -107 71 -125
10 -8 19 -23 19 -34 0 -10 18 -37 40 -59 22 -22 40 -43 40 -48 0 -14 60 -81
78 -86 9 -3 22 -16 27 -28 6 -13 25 -30 42 -38 18 -8 33 -20 33 -26 0 -14 43
-54 58 -54 7 0 23 -13 37 -29 30 -33 239 -139 335 -170 36 -11 94 -25 130 -31
36 -6 94 -16 130 -22 38 -6 133 -8 230 -5 232 7 395 44 564 128 110 55 164 89
202 127 18 17 37 32 42 32 15 0 142 122 142 136 0 7 12 19 27 26 15 7 37 32
49 56 13 24 35 53 50 64 14 12 34 41 45 65 10 23 22 43 27 43 14 0 59 91 67
133 4 21 16 43 26 50 26 19 59 95 59 139 0 24 8 46 24 65 31 37 66 167 66 247
1 75 16 147 35 162 30 23 38 182 31 609 -5 308 -10 415 -20 430 -7 11 -16 31
-19 45 -3 14 -10 44 -16 67 -6 23 -15 88 -20 145 -9 103 -28 163 -63 202 -12
13 -18 36 -18 65 0 53 -29 123 -65 159 -14 14 -25 36 -25 49 0 31 -21 72 -54
102 -14 13 -30 39 -36 57 -6 18 -29 47 -51 65 -21 17 -39 36 -39 43 0 14 -119
129 -196 189 -46 36 -72 51 -249 139 -167 84 -329 117 -590 123 -104 2 -201 2
-215 -1z m340 -344 c114 -12 245 -51 358 -107 88 -43 118 -64 221 -151 24 -20
50 -41 57 -45 8 -4 14 -15 14 -23 0 -7 17 -31 38 -52 21 -20 50 -63 65 -94 16
-31 37 -60 47 -63 11 -4 22 -18 25 -33 12 -59 39 -129 66 -171 17 -27 29 -58
29 -78 0 -65 39 -211 63 -237 21 -22 25 -39 30 -132 10 -150 8 -663 -2 -822
-8 -117 -12 -138 -34 -170 -25 -38 -50 -126 -62 -222 -4 -31 -15 -64 -25 -75
-21 -23 -54 -104 -64 -156 -3 -20 -18 -47 -32 -60 -31 -29 -54 -71 -54 -98 0
-11 -8 -22 -19 -26 -17 -5 -71 -75 -71 -91 0 -3 -22 -26 -50 -51 -27 -25 -50
-51 -50 -59 0 -7 -9 -18 -20 -24 -11 -6 -49 -33 -86 -61 -79 -59 -166 -105
-289 -150 l-90 -33 -210 0 c-192 -1 -217 1 -290 23 -133 39 -298 123 -347 178
-16 18 -37 35 -47 38 -10 3 -24 16 -31 29 -7 13 -27 32 -45 42 -20 10 -36 28
-39 43 -6 29 -31 60 -61 77 -11 6 -22 24 -26 40 -8 37 -41 91 -68 110 -12 9
-21 26 -21 40 0 22 -39 112 -75 174 -8 14 -15 33 -15 44 0 36 -52 211 -69 230
-11 13 -18 46 -22 115 -3 53 -12 192 -19 308 -12 178 -12 246 0 415 7 112 16
244 19 294 4 58 12 99 23 115 18 29 53 139 68 218 5 29 19 64 30 79 28 35 60
109 60 138 0 16 8 28 25 36 14 6 35 31 47 56 12 25 41 64 65 87 24 23 43 49
43 58 0 9 18 26 39 37 22 11 42 29 46 39 3 11 15 23 25 26 29 9 130 71 156 96
12 11 37 24 56 29 18 4 76 20 128 35 52 15 120 31 150 35 82 11 244 11 340 0z"/>
<path d="M22465 15001 c-23 -5 -31 -13 -36 -36 -4 -17 -7 -877 -8 -1912 l-1
-1881 31 -11 c36 -12 268 -15 286 -3 10 6 13 208 15 889 2 708 6 885 16 895
10 10 191 13 930 13 504 0 929 -3 945 -8 l27 -7 0 -885 0 -885 28 -7 c42 -12
235 -7 260 6 l22 12 -2 1904 c-2 1047 -6 1907 -10 1910 -11 11 -179 18 -242
11 l-56 -7 0 -864 0 -863 -82 -7 c-118 -9 -1815 -2 -1825 8 -4 5 -9 395 -11
867 l-2 858 -31 6 c-39 8 -214 6 -254 -3z"/>
<path d="M33983 15003 l-23 -4 0 -1919 0 -1918 70 -7 c75 -8 204 2 232 16 16
9 18 56 20 674 3 622 4 665 21 682 16 17 48 18 410 20 388 1 538 10 687 40 41
8 97 19 123 23 66 12 158 44 242 85 39 18 95 45 125 58 30 14 69 37 85 52 17
14 60 50 98 81 37 30 67 59 67 64 0 4 20 29 45 54 25 26 45 53 45 61 0 8 12
27 26 42 35 38 62 93 70 143 4 23 15 50 25 59 31 29 49 87 49 159 0 86 15 173
40 234 28 67 26 163 -5 261 -14 45 -27 116 -31 170 -7 108 -18 152 -50 190
-13 15 -26 44 -30 65 -9 49 -32 88 -61 101 -13 6 -23 19 -23 31 0 29 -28 69
-61 86 -16 8 -29 21 -29 28 0 8 -14 25 -30 38 -17 13 -59 48 -95 78 -46 39
-103 73 -200 118 -196 91 -299 113 -615 132 -158 9 -1181 12 -1227 3z m1432
-387 c72 -13 160 -35 197 -49 87 -33 228 -126 268 -177 18 -23 44 -47 59 -54
19 -10 30 -28 39 -62 8 -30 25 -59 46 -79 24 -23 35 -44 40 -76 12 -81 38
-184 52 -206 25 -39 14 -224 -18 -318 -13 -38 -25 -96 -33 -158 -5 -36 -12
-51 -28 -58 -27 -12 -67 -79 -67 -111 0 -16 -11 -29 -38 -43 -20 -11 -41 -30
-47 -42 -5 -13 -13 -23 -18 -23 -4 0 -26 -17 -50 -39 -59 -53 -248 -155 -336
-181 -198 -58 -235 -61 -714 -67 -445 -5 -448 -5 -466 16 -25 29 -31 184 -30
795 1 647 9 917 28 939 12 15 60 17 500 17 469 0 491 -1 616 -24z"/>
<path d="M6469 11865 c-3 -2 -58 -7 -123 -9 l-118 -5 -878 -2033 c-483 -1118
-891 -2067 -906 -2108 -15 -41 -45 -111 -66 -156 -21 -44 -38 -89 -38 -100 0
-10 -7 -30 -15 -44 -39 -67 -75 -153 -75 -179 0 -19 -7 -34 -18 -40 -19 -10
-72 -128 -72 -160 0 -10 -11 -34 -24 -53 -26 -39 -66 -139 -66 -167 0 -10 -9
-26 -19 -35 -21 -19 -56 -102 -65 -153 -3 -18 -14 -41 -24 -51 -11 -11 -31
-52 -46 -93 -15 -41 -34 -85 -42 -99 -30 -54 -55 -115 -65 -159 -7 -25 -18
-51 -26 -57 -7 -7 -30 -51 -49 -100 -20 -49 -46 -109 -59 -134 -13 -25 -31
-72 -40 -104 -9 -32 -28 -74 -41 -94 -13 -19 -33 -64 -44 -101 -12 -36 -27
-72 -34 -81 -22 -23 -66 -140 -66 -172 0 -17 -9 -38 -23 -51 -26 -24 -67 -114
-67 -146 0 -11 -5 -23 -11 -27 -17 -10 -66 -123 -74 -171 -3 -23 -14 -48 -22
-55 -23 -18 -63 -113 -63 -147 0 -16 -8 -35 -17 -42 -22 -18 -73 -132 -73
-163 0 -13 -10 -37 -23 -53 -29 -35 -67 -124 -67 -156 0 -13 -9 -32 -19 -41
-23 -21 -71 -136 -71 -170 0 -14 -11 -37 -24 -53 -30 -36 -53 -90 -62 -148 -3
-26 -13 -49 -21 -52 -20 -8 -52 -75 -63 -134 -6 -28 -21 -64 -34 -80 -26 -30
-66 -127 -66 -158 0 -10 -7 -25 -16 -32 -21 -17 -51 -87 -65 -148 -5 -25 -18
-53 -29 -63 -40 -38 -80 -201 -56 -232 6 -8 164 -80 351 -159 585 -248 1215
-513 1335 -562 63 -25 156 -63 205 -85 249 -107 380 -163 480 -203 123 -50
245 -101 290 -122 17 -7 89 -38 160 -69 72 -30 193 -82 269 -115 87 -37 146
-57 157 -53 34 13 108 135 109 180 0 26 20 16 -395 194 -245 105 -2029 860
-2503 1058 -121 51 -172 77 -172 89 0 8 11 38 25 66 47 94 136 307 142 338 3
18 13 40 21 50 15 17 53 103 124 277 17 41 48 111 69 155 21 44 41 94 45 110
4 17 13 39 20 50 12 18 53 111 154 345 16 36 52 119 80 185 29 66 65 154 81
195 17 41 38 91 49 110 10 19 53 116 96 215 42 99 99 232 127 295 27 63 69
160 92 215 61 141 289 666 445 1020 102 233 2155 4968 2177 5023 5 12 -37 18
-48 7z"/>
<path d="M10604 7928 l-29 -33 33 29 c30 28 37 36 29 36 -2 0 -16 -15 -33 -32z"/>
<path d="M11729 6843 c-13 -16 -12 -17 4 -4 9 7 17 15 17 17 0 8 -8 3 -21 -13z"/>
<path d="M10590 6836 c0 -2 8 -10 18 -17 15 -13 16 -12 3 4 -13 16 -21 21 -21
13z"/>
<path d="M11679 6793 c-13 -16 -12 -17 4 -4 9 7 17 15 17 17 0 8 -8 3 -21 -13z"/>
</g>
</svg>
